# xmcd CD database file
#
# Track frame offsets:
#	150
#	20292
#	45711
#	62223
#	84498
#	101070
#	117872
#	133033
#	153158
#	171046
#
# Disc length: 2496 seconds
#
# Revision: 0
# Processed by: cddbd v1.5.1PL0 Copyright (c) Steve Scherf et al.
# Submitted via: CDex 1.51
#
DISCID=7a09be0a
DTITLE=Falk, Rainer - Saitengriffe
DYEAR=1997
DGENRE=Jazz
TTITLE0=2. Jan 1997
TTITLE1=3. Apr. 1997
TTITLE2=20. Aug 1997
TTITLE3=18. Jul 1997
TTITLE4=13. Mai 1997
TTITLE5=15. Feb 1997
TTITLE6=1. Jan 1997
TTITLE7=19. Nov 1996
TTITLE8=7. Jan 1996
TTITLE9=6. Feb 1997
EXTD=YEAR: 1997
EXTT0=
EXTT1=
EXTT2=
EXTT3=
EXTT4=
EXTT5=
EXTT6=
EXTT7=
EXTT8=
EXTT9=
PLAYORDER=
